<svg xmlns="http://www.w3.org/2000/svg" viewBox="0 0 800 444.76"><defs><style>.cls-1{fill:#fff;}</style></defs><title>logoProSound.2svg</title><g id="d"><path class="cls-1" d="M800,349.14a9.25,9.25,0,1,1-18.49,0v-4.79c-9.9,8.94-24.25,15.33-38,15.33-31.27,0-56.47-27.12-56.47-60.62,0-33.18,25.2-60.61,56.47-60.61,14.68,0,27.76,6.05,38,16V160.29a9.25,9.25,0,1,1,18.49,0Zm-18.49-48.81c0-25.21-17.24-43.06-38-43.06-21.06,0-38,18.5-38,41.79s16.9,42.11,38,42.11C764.27,341.17,781.51,323.3,781.51,300.33Z"/></g><g id="n"><path class="cls-1" d="M666.26,290.76v59a9.25,9.25,0,1,1-18.49,0v-59c0-30-21.38-33.17-30.31-33.17-30.63,0-32.86,34.13-32.86,44.34v47.85c0,4.78-4.78,9.25-9.25,9.25-5.1,0-9.57-4.47-9.57-9.25V249.6a9.33,9.33,0,0,1,9.57-9.24c4.47,0,9.25,3.83,9.25,10.84,8-7.65,18.51-12.12,32.86-12.12C641.07,239.08,666.26,252.8,666.26,290.76Z"/></g><g id="u"><path class="cls-1" d="M533.8,249.6v99.87a8.87,8.87,0,0,1-9.24,9.24,9.26,9.26,0,0,1-9.27-9.24v-1.93A49.24,49.24,0,0,1,482.45,360c-23.61,0-48.82-13.41-48.82-51.68V249.6a9.26,9.26,0,1,1,18.51,0v58.71c0,30,21.05,33.17,30.31,33.17,24.23,0,32.84-24.56,32.84-45.61V249.6a9.26,9.26,0,0,1,9.27-9.24A8.87,8.87,0,0,1,533.8,249.6Z"/></g><g id="Dif2"><path class="cls-1" d="M275.59,335a35.54,35.54,0,1,1,35.53-35.54A35.58,35.58,0,0,1,275.59,335Zm0-52.45a16.91,16.91,0,1,0,16.91,16.91A16.93,16.93,0,0,0,275.59,282.58Z"/></g><g id="Dif1"><path class="cls-1" d="M275.59,394.25a94.76,94.76,0,1,1,94.77-94.76A94.87,94.87,0,0,1,275.59,394.25Zm0-170.89a76.14,76.14,0,1,0,76.14,76.13A76.23,76.23,0,0,0,275.59,223.36Z"/></g><g id="s"><path class="cls-1" d="M117.52,323.42c0,20.1-20.41,36.69-47.86,36.69-36.36,0-46.25-26.49-46.25-35.41,0-5.74,3.51-10.53,8.93-10.53a9.53,9.53,0,0,1,9.57,9.25c0,1.92,3.19,18.18,27.44,18.18,18.18,0,29.34-8.92,29.34-18.18,0-5.74-3.18-9.25-8.61-12.12-19.78-10.53-66.35-7.66-66.35-39.87,0-19.78,19.78-32.55,44.66-32.55,42.11,0,44.67,33.49,44.67,34.13,0,5.12-2.88,9.57-8.94,9.57-4.47,0-8.94-2.54-9.57-8.28,0-1-1.6-16.91-25.84-16.91-15,0-26.17,5.41-26.17,14.35,0,13.4,31.92,10.53,56.15,23.28C115.29,303.64,117.52,316.4,117.52,323.42Z"/></g><g id="Satel2"><circle class="cls-1" cx="275.59" cy="108.46" r="9.31"/></g><g id="Satel1"><path class="cls-1" d="M275.59,166.28a57.83,57.83,0,1,1,57.82-57.82A57.88,57.88,0,0,1,275.59,166.28Zm0-97a39.2,39.2,0,1,0,39.19,39.2A39.24,39.24,0,0,0,275.59,69.26Z"/></g><g id="r"><path class="cls-1" d="M199.45,59.53a9.25,9.25,0,0,1-9.24,9.24c-8.94,0-34.14,8-34.14,44.34v46a9.26,9.26,0,0,1-9.26,9.25,9.7,9.7,0,0,1-9.24-9.25V59.2A9.26,9.26,0,0,1,146.81,50a8.89,8.89,0,0,1,9.26,9.25v5.43a49.14,49.14,0,0,1,34.14-14.35A8.87,8.87,0,0,1,199.45,59.53Z"/></g><g id="p"><path class="cls-1" d="M113.57,108.66c0,33.49-25.53,60.61-56.46,60.61a54.44,54.44,0,0,1-38.6-16v69.55a8.88,8.88,0,0,1-9.26,9.25A9.25,9.25,0,0,1,0,222.86V59.2A9.26,9.26,0,0,1,9.25,50a8.89,8.89,0,0,1,9.26,9.25V64a56.45,56.45,0,0,1,38.6-16C88,48,113.57,75.47,113.57,108.66Zm-18.5,0c0-23.29-16.91-42.12-38-42.12s-38,18.83-38,42.12,16.91,42.11,38,42.11S95.07,132,95.07,108.66Z"/></g><g id="ConturColonki"><path class="cls-1" d="M413.88,41.27V403.8a41,41,0,0,1-41,41H178.49a41,41,0,0,1-41.22-41V201.66a9.32,9.32,0,1,1,18.63,0V403.8a22.5,22.5,0,0,0,22.59,22.33H372.92a22.44,22.44,0,0,0,22.33-22.33V41.27a22.54,22.54,0,0,0-22.33-22.64H178.49a21.15,21.15,0,0,0-9.34,2.07l-.83.39a9.29,9.29,0,0,1-3.66.75,9.45,9.45,0,0,1-5.77-2l-1.5-1.45c0-.05-.08-.09-.08-.09a9.48,9.48,0,0,1-2.07-5.9,9.32,9.32,0,0,1,4.14-7.8,12.64,12.64,0,0,1,1.67-.88A39.51,39.51,0,0,1,178.49,0H372.92C395.52,0,413.88,18.63,413.88,41.27Z"/></g></svg>