<?xml version="1.0" encoding="utf-8"?>
<!-- Generator: Adobe Illustrator 23.1.0, SVG Export Plug-In . SVG Version: 6.00 Build 0)  -->
<svg version="1.2" baseProfile="tiny" id="Слой_1"
	 xmlns="http://www.w3.org/2000/svg" xmlns:xlink="http://www.w3.org/1999/xlink" x="0px" y="0px" viewBox="0 0 1200 630"
	 xml:space="preserve">
<g>
	<path fill="#F8F9FA" d="M890.3,546.6v-24.1h10.5c2.2,0,4,0.4,5.6,1.1c1.6,0.7,2.8,1.7,3.6,3s1.3,2.9,1.3,4.7c0,1.8-0.4,3.4-1.3,4.7
		c-0.9,1.3-2.1,2.3-3.6,3c-1.6,0.7-3.4,1-5.6,1h-7.4l2.6-2.4v9.2H890.3z M895.9,538.1l-2.6-2.7h7.1c1.7,0,3-0.4,3.9-1.1
		c0.9-0.7,1.3-1.8,1.3-3.1c0-1.3-0.4-2.4-1.3-3.1c-0.9-0.7-2.2-1.1-3.9-1.1h-7.1l2.6-2.7V538.1z M905.7,546.6l-6.1-8.8h6l6.1,8.8
		H905.7z"/>
	<path fill="#F8F9FA" d="M66.6,546.6v-24.1h5.6v19.6h12v4.6H66.6z"/>
	<g>
		<path fill="none" stroke="#F8F9FA" stroke-width="4" stroke-linecap="round" stroke-linejoin="round" d="M901,495.8H75.4
			c0-114,46.2-217.2,120.9-291.9C271,129.2,374.2,83,488.2,83s217.2,46.2,291.9,120.9C854.8,278.6,901,381.8,901,495.8z"/>
		<path fill="none" stroke="#F8F9FA" stroke-width="4" stroke-linecap="round" stroke-linejoin="round" d="M788.2,495.8H188.2
			c0-82.8,33.6-157.8,87.9-212.1s129.3-87.9,212.1-87.9s157.8,33.6,212.1,87.9C754.6,338,788.2,413,788.2,495.8z"/>
		<path fill="none" stroke="#F8F9FA" stroke-width="4" stroke-linecap="round" stroke-linejoin="round" d="M686.5,495.8H289.9
			c0-54.8,22.2-104.3,58.1-140.2c35.9-35.9,85.5-58.1,140.2-58.1s104.3,22.2,140.2,58.1C664.3,391.5,686.5,441.1,686.5,495.8z"/>
		<path fill="none" stroke="#F8F9FA" stroke-width="4" stroke-linecap="round" stroke-linejoin="round" d="M547.4,495.8H428.9
			c0-16.4,6.6-31.2,17.4-41.9c10.7-10.7,25.5-17.4,41.9-17.4c16.4,0,31.2,6.6,41.9,17.4C540.8,464.6,547.4,479.5,547.4,495.8z"/>
		<path fill="none" stroke="#F8F9FA" stroke-width="4" stroke-linecap="round" stroke-linejoin="round" d="M619.8,495.8H356.5
			c0-36.4,14.7-69.3,38.6-93.1c23.8-23.8,56.7-38.6,93.1-38.6s69.3,14.7,93.1,38.6S619.8,459.5,619.8,495.8z"/>
		<polyline fill="none" stroke="#F8F9FA" stroke-width="4" stroke-linecap="round" stroke-linejoin="round" points="901,495.8 
			788.2,495.8 686.5,495.8 619.8,495.8 547.4,495.8 488.2,495.8 428.9,495.8 356.5,495.8 289.9,495.8 188.2,495.8 75.4,495.8 		"/>
		<polyline fill="none" stroke="#F8F9FA" stroke-width="4" stroke-linecap="round" stroke-linejoin="round" points="488.2,495.8 
			446.3,453.9 395.1,402.7 348,355.6 276.1,283.7 196.3,203.9 		"/>
		<polyline fill="none" stroke="#F8F9FA" stroke-width="4" stroke-linecap="round" stroke-linejoin="round" points="488.2,495.8 
			530.1,453.9 581.3,402.7 628.4,355.6 700.3,283.7 780.1,203.9 		"/>
		<polyline fill="none" stroke="#F8F9FA" stroke-width="4" stroke-linecap="round" stroke-linejoin="round" points="488.2,495.8 
			488.2,436.6 488.2,364.2 488.2,297.5 488.2,195.8 488.2,83 		"/>
	</g>
	<path fill="#F8F9FA" d="M474.2,546.6v-24.1h4.6l10.3,17h-2.4l10.1-17h4.7v24.1h-5.2l-0.1-16.1h1L489,544h-2.5l-8.2-13.5h1.1v16.1
		H474.2z"/>
	<g>
		<linearGradient id="SVGID_1_" gradientUnits="userSpaceOnUse" x1="459.9066" y1="306.4224" x2="516.4675" y2="306.4224">
			<stop  offset="0" style="stop-color:#F2F2F2"/>
			<stop  offset="1" style="stop-color:#F2F2F2;stop-opacity:0"/>
		</linearGradient>
		<path fill="url(#SVGID_1_)" d="M488.2,495.8c0,0,63.6-378.8,0-378.8S488.2,495.8,488.2,495.8z"/>
		<linearGradient id="SVGID_2_" gradientUnits="userSpaceOnUse" x1="488.1871" y1="344.1388" x2="567.5964" y2="344.1388">
			<stop  offset="0" style="stop-color:#F2F2F2"/>
			<stop  offset="1" style="stop-color:#F2F2F2;stop-opacity:0"/>
		</linearGradient>
		<path fill="url(#SVGID_2_)" d="M488.2,495.8c0,0,117.5-291.9,66.6-303.1C503.9,181.6,488.2,495.8,488.2,495.8z"/>
		<linearGradient id="SVGID_3_" gradientUnits="userSpaceOnUse" x1="408.7778" y1="344.1388" x2="488.187" y2="344.1388">
			<stop  offset="0" style="stop-color:#F2F2F2"/>
			<stop  offset="1" style="stop-color:#F2F2F2;stop-opacity:0"/>
		</linearGradient>
		<path fill="url(#SVGID_3_)" d="M488.2,495.8c0,0-117.5-291.9-66.6-303.1S488.2,495.8,488.2,495.8z"/>
		<linearGradient id="SVGID_4_" gradientUnits="userSpaceOnUse" x1="299.4245" y1="401.4342" x2="488.1871" y2="401.4342">
			<stop  offset="0" style="stop-color:#F2F2F2"/>
			<stop  offset="1" style="stop-color:#F2F2F2;stop-opacity:0"/>
		</linearGradient>
		<path fill="url(#SVGID_4_)" d="M488.2,495.8c0,0-216.9-154.5-185.7-185.7S488.2,495.8,488.2,495.8z"/>
		<linearGradient id="SVGID_5_" gradientUnits="userSpaceOnUse" x1="488.187" y1="401.4342" x2="676.9497" y2="401.4342">
			<stop  offset="0" style="stop-color:#F2F2F2"/>
			<stop  offset="1" style="stop-color:#F2F2F2;stop-opacity:0"/>
		</linearGradient>
		<path fill="url(#SVGID_5_)" d="M488.2,495.8c0,0,216.9-154.5,185.7-185.7C642.7,278.9,488.2,495.8,488.2,495.8z"/>
		<linearGradient id="SVGID_6_" gradientUnits="userSpaceOnUse" x1="488.187" y1="455.8175" x2="667.4692" y2="455.8175">
			<stop  offset="0" style="stop-color:#F2F2F2"/>
			<stop  offset="1" style="stop-color:#F2F2F2;stop-opacity:0"/>
		</linearGradient>
		<path fill="url(#SVGID_6_)" d="M488.2,495.8c0,0,191.2-44.6,178.7-74.6S488.2,495.8,488.2,495.8z"/>
		<linearGradient id="SVGID_7_" gradientUnits="userSpaceOnUse" x1="308.9049" y1="455.8175" x2="488.187" y2="455.8175">
			<stop  offset="0" style="stop-color:#F2F2F2"/>
			<stop  offset="1" style="stop-color:#F2F2F2;stop-opacity:0"/>
		</linearGradient>
		<path fill="url(#SVGID_7_)" d="M488.2,495.8c0,0-191.2-44.6-178.7-74.6S488.2,495.8,488.2,495.8z"/>
	</g>
</g>
<linearGradient id="SVGID_8_" gradientUnits="userSpaceOnUse" x1="1079.8574" y1="597.1095" x2="1079.8574" y2="184.3051">
	<stop  offset="0.5419" style="stop-color:#F2F2F2"/>
	<stop  offset="1" style="stop-color:#F2F2F2;stop-opacity:0.4"/>
</linearGradient>
<rect x="1026.3" y="83" fill="url(#SVGID_8_)" width="107.2" height="412.8"/>
<g>
	<path fill="#F8F9FA" d="M1036.7,546.6v-23.7h5.5v19.2h11.8v4.5H1036.7z"/>
	<path fill="#F8F9FA" d="M1067.4,547c-3.4,0-6-0.9-7.9-2.8c-1.9-1.9-2.8-4.6-2.8-8.1v-13.2h5.5V536c0,2.2,0.5,3.9,1.4,4.9
		c0.9,1,2.2,1.5,3.9,1.5c1.7,0,3-0.5,3.9-1.5c0.9-1,1.4-2.6,1.4-4.9v-13.1h5.4v13.2c0,3.5-0.9,6.2-2.8,8.1
		C1073.3,546.1,1070.7,547,1067.4,547z"/>
	<path fill="#F8F9FA" d="M1089.1,546.6h-5.5v-23.7h17.9v4.4h-12.4V546.6z M1088.6,533.5h11.4v4.4h-11.4V533.5z"/>
	<path fill="#F8F9FA" d="M1113,547c-1.9,0-3.7-0.3-5.5-0.8c-1.7-0.5-3.2-1.2-4.2-2l1.9-4.1c1,0.7,2.2,1.3,3.6,1.8
		c1.4,0.5,2.8,0.7,4.2,0.7c1.1,0,2-0.1,2.6-0.3c0.7-0.2,1.2-0.5,1.5-0.9c0.3-0.4,0.5-0.8,0.5-1.3c0-0.6-0.2-1.1-0.7-1.5
		c-0.5-0.4-1.2-0.7-2-0.9c-0.8-0.2-1.7-0.5-2.7-0.7c-1-0.2-1.9-0.5-2.9-0.8c-1-0.3-1.9-0.7-2.7-1.2s-1.5-1.2-2-2
		c-0.5-0.8-0.7-1.9-0.7-3.1c0-1.4,0.4-2.6,1.1-3.7c0.7-1.1,1.8-2,3.3-2.7c1.5-0.7,3.3-1,5.6-1c1.5,0,3,0.2,4.4,0.5
		c1.5,0.4,2.7,0.9,3.8,1.6l-1.7,4.1c-1.1-0.6-2.2-1.1-3.3-1.4c-1.1-0.3-2.2-0.5-3.3-0.5c-1.1,0-2,0.1-2.6,0.4
		c-0.7,0.2-1.1,0.6-1.4,1c-0.3,0.4-0.5,0.9-0.5,1.4c0,0.6,0.2,1.1,0.7,1.5c0.5,0.4,1.2,0.7,2,0.9c0.8,0.2,1.7,0.4,2.7,0.6
		c1,0.2,2,0.5,2.9,0.8c1,0.3,1.9,0.7,2.7,1.2c0.8,0.5,1.5,1.1,2,2c0.5,0.8,0.8,1.8,0.8,3.1c0,1.3-0.4,2.6-1.1,3.7
		c-0.7,1.1-1.8,2-3.3,2.7C1117.1,546.7,1115.2,547,1113,547z"/>
</g>
</svg>
