<?xml version="1.0" encoding="utf-8"?>
<!-- Generator: Adobe Illustrator 23.1.0, SVG Export Plug-In . SVG Version: 6.00 Build 0)  -->
<svg version="1.2" baseProfile="tiny" id="Слой_1"
	 xmlns="http://www.w3.org/2000/svg" xmlns:xlink="http://www.w3.org/1999/xlink" x="0px" y="0px" viewBox="0 0 1200 630"
	 xml:space="preserve">
<g>
	<rect y="620.9" fill="#F8F9FA" width="1200" height="10"/>
	<rect y="-15.1" fill="#F8F9FA" width="10" height="636"/>
	<g>
		<image width="1186" height="380" xlink:href="E051152F.png"  transform="matrix(1 0 0 1 9 241)">
		</image>
		<path fill="#F8F9FA" d="M1195,625.9c-2.8,0-5-2.2-5-5c0-84.5-81.7-276.5-140.5-276.5c-20.9,0-42.1,11.8-64.6,24.4
			c-22.8,12.7-47.3,26.3-72.4,26.3c-21.6,0-43.7-10.1-65.7-39.4c-69.9-93.4-173.9-78.4-257.4-66.3l-3.7,0.5
			c-19.1,2.8-38.8,5.9-57.9,9c-59.5,9.5-121,19.3-176.7,19.3c-31.5,0-57.3-17.8-82.3-35c-35.5-24.4-72.1-49.7-128.4-28.7
			c-37.9,14.1-71.7,81.7-97.6,195.5C23.1,536.9,15,620.5,15,621.4c-0.3,2.7-2.7,4.8-5.5,4.5c-2.7-0.3-4.8-2.7-4.5-5.5
			c0.1-0.8,8.2-85.1,28.2-172.6c27.1-118.9,62-187.1,103.8-202.7c27.4-10.2,52.9-11.2,78.2-3c22.1,7.2,41,20.2,59.4,32.9
			c24.8,17.1,48.2,33.2,76.6,33.2c54.9,0,116-9.8,175.1-19.2c19.1-3.1,38.8-6.2,58-9l3.7-0.5c42-6.1,89.7-13,136.6-6.3
			c55,7.8,97.6,32.8,130.2,76.5c42.3,56.5,82.6,34.1,125.2,10.3c22.6-12.6,46-25.7,69.5-25.7c16.7,0,34.8,11.4,53.7,34
			c16,19.1,32.5,46.2,47.7,78.2c29.4,62.1,49.1,132.2,49.1,174.3C1200,623.7,1197.8,625.9,1195,625.9z"/>
	</g>
	<g>
		<g>
			
				<circle fill="none" stroke="#F8F9FA" stroke-width="10" stroke-linecap="round" stroke-linejoin="round" cx="172.5" cy="242.5" r="13.5"/>
			
				<circle fill="none" stroke="#F8F9FA" stroke-width="10" stroke-linecap="round" stroke-linejoin="round" cx="351.5" cy="312.5" r="13.5"/>
			
				<circle fill="none" stroke="#F8F9FA" stroke-width="10" stroke-linecap="round" stroke-linejoin="round" cx="1050.5" cy="339.5" r="13.5"/>
			
				<circle fill="none" stroke="#F8F9FA" stroke-width="10" stroke-linecap="round" stroke-linejoin="round" cx="915.5" cy="390.5" r="13.5"/>
			
				<circle fill="none" stroke="#F8F9FA" stroke-width="10" stroke-linecap="round" stroke-linejoin="round" cx="713.5" cy="276.5" r="13.5"/>
		</g>
		<path fill="none" stroke="#F8F9FA" stroke-width="6" stroke-linecap="round" stroke-linejoin="round" d="M1200,333.2
			c0,0-128.3-77-195.2-83c-136.5-12.3-112.2-42.9-157.9-66.8c-99.6-52.1-419,174.8-515.2,174.8s-98.1-35-178.8-36S0,385.2,0,385.2"
			/>
	</g>
</g>
</svg>
