<svg id="Слой_1" data-name="Слой 1" xmlns="http://www.w3.org/2000/svg" xmlns:xlink="http://www.w3.org/1999/xlink" viewBox="0 0 1200 630"><defs><style>.cls-1{fill:#f8f9fa;}.cls-2{fill:url(#Безымянный_градиент_10);}.cls-3{fill:url(#Безымянный_градиент_10-2);}.cls-4{fill:url(#Безымянный_градиент_10-3);}</style><linearGradient id="Безымянный_градиент_10" x1="600" y1="405.35" x2="600" y2="60.45" gradientUnits="userSpaceOnUse"><stop offset="0.54" stop-color="#f2f2f2"/><stop offset="0.6" stop-color="#f2f2f2" stop-opacity="0.95"/><stop offset="0.71" stop-color="#f2f2f2" stop-opacity="0.83"/><stop offset="0.85" stop-color="#f2f2f2" stop-opacity="0.63"/><stop offset="1" stop-color="#f2f2f2" stop-opacity="0.4"/></linearGradient><linearGradient id="Безымянный_градиент_10-2" x1="448" y1="232.85" x2="487.1" y2="232.85" xlink:href="#Безымянный_градиент_10"/><linearGradient id="Безымянный_градиент_10-3" x1="752" y1="232.85" x2="712.9" y2="232.85" xlink:href="#Безымянный_градиент_10"/></defs><title>picEQ</title><path class="cls-1" d="M744.9,305.65v.4a144.86,144.86,0,0,1-128.9,144v120H584v-120a144.93,144.93,0,0,1-128.9-144v-.4h32v.4a112.9,112.9,0,0,0,225.8,0v-.4Z"/><path class="cls-2" d="M701.2,161.55v142.6a101.2,101.2,0,0,1-202.4,0V161.55a101.2,101.2,0,0,1,202.4,0Z"/><path class="cls-1" d="M701.6,160.05v6.1H499.1v-6.1a101.28,101.28,0,0,1,33.4-75.2v59.8h30.7V65.85a96,96,0,0,1,21.5-5.8v84.6h30.7V60a97.3,97.3,0,0,1,21.5,5.7v79.1h30.7V84.35A101.17,101.17,0,0,1,701.6,160.05Z"/><rect class="cls-1" x="499.1" y="196.85" width="202.4" height="21.5"/><rect class="cls-1" x="499.1" y="248.95" width="202.4" height="21.5"/><path class="cls-1" d="M499.1,301.05H701.5v4.6a101.06,101.06,0,0,1-29.6,71.6q-2.1,2.1-4.5,4.2v-58.9H636.7v77.5a95.86,95.86,0,0,1-21.5,5.7v-83.2H584.5v83.1a97.49,97.49,0,0,1-21.5-5.8v-77.3H532.3v58.3a101,101,0,0,1-33.4-75.2v-4.6Z"/><rect class="cls-3" x="448" y="177.35" width="39.1" height="111"/><rect class="cls-4" x="712.9" y="177.35" width="39.1" height="111"/></svg>