<svg id="Слой_1" data-name="Слой 1" xmlns="http://www.w3.org/2000/svg" xmlns:xlink="http://www.w3.org/1999/xlink" viewBox="0 0 1200 630"><defs><style>.cls-1{fill:#f8f9fa;}.cls-2,.cls-3,.cls-4{stroke:#f8f9fa;stroke-linecap:round;stroke-linejoin:round;}.cls-2{stroke-width:10px;fill:url(#Безымянный_градиент);}.cls-3,.cls-4{fill:none;}.cls-3{stroke-width:10px;}.cls-4{stroke-width:6px;}</style><linearGradient id="Безымянный_градиент" x1="633.59" y1="1376.93" x2="633.59" y2="1797.93" gradientTransform="matrix(1, 0, 0, -1, -28.45, 2034.11)" gradientUnits="userSpaceOnUse"><stop offset="0" stop-color="#f2f2f2"/><stop offset="1" stop-color="#f2f2f2" stop-opacity="0"/></linearGradient></defs><title>picEQ</title><rect class="cls-1" y="620.89" width="1200" height="10"/><rect class="cls-1" y="-15.11" width="10" height="636"/><path class="cls-2" d="M10,620.9s31.94-335,128.77-371.09c99.3-37,139.17,63.42,212.4,63.42S506.65,296.28,585,285c83.15-12,193-29.5,265.79,67.71,68.53,91.59,134.36-13.3,198.68-13.3S1195,537.18,1195,620.9"/><circle class="cls-3" cx="172.5" cy="242.5" r="13.5"/><circle class="cls-3" cx="351.5" cy="312.5" r="13.5"/><circle class="cls-3" cx="1050.5" cy="339.5" r="13.5"/><circle class="cls-3" cx="915.5" cy="390.5" r="13.5"/><circle class="cls-3" cx="713.5" cy="276.5" r="13.5"/><path class="cls-4" d="M1200,333.23s-128.31-77-195.19-83C868.29,238,892.57,207.3,846.93,183.42c-99.63-52.15-419,174.81-515.2,174.81s-98.08-35-178.85-36S0,385.23,0,385.23"/></svg>