<svg id="Слой_1" data-name="Слой 1" xmlns="http://www.w3.org/2000/svg" xmlns:xlink="http://www.w3.org/1999/xlink" viewBox="0 0 1200 630"><defs><style>.cls-1{fill:url(#Безымянный_градиент_10);}.cls-2{fill:url(#Безымянный_градиент_10-2);}.cls-3{fill:url(#Безымянный_градиент_10-3);}.cls-4{fill:url(#Безымянный_градиент_10-4);}.cls-5{fill:url(#Безымянный_градиент_10-5);}.cls-6{fill:url(#Безымянный_градиент_10-6);}.cls-7{fill:url(#Безымянный_градиент_10-7);}.cls-8{fill:url(#Безымянный_градиент_10-8);}.cls-9{fill:url(#Безымянный_градиент_10-9);}.cls-10{fill:url(#Безымянный_градиент_10-10);}.cls-11{fill:url(#Безымянный_градиент_10-11);}</style><linearGradient id="Безымянный_градиент_10" x1="395.66" y1="765.07" x2="395.66" y2="529.15" gradientTransform="translate(-188.24 -395.13)" gradientUnits="userSpaceOnUse"><stop offset="0.54" stop-color="#f2f2f2"/><stop offset="0.6" stop-color="#f2f2f2" stop-opacity="0.95"/><stop offset="0.71" stop-color="#f2f2f2" stop-opacity="0.83"/><stop offset="0.85" stop-color="#f2f2f2" stop-opacity="0.63"/><stop offset="1" stop-color="#f2f2f2" stop-opacity="0.4"/></linearGradient><linearGradient id="Безымянный_градиент_10-2" x1="395.66" y1="749.96" x2="395.66" y2="725.44" gradientTransform="translate(-330.71 -537.6)" xlink:href="#Безымянный_градиент_10"/><linearGradient id="Безымянный_градиент_10-3" x1="516.57" y1="749.96" x2="516.57" y2="725.44" gradientTransform="translate(-451.62 -416.69)" xlink:href="#Безымянный_градиент_10"/><linearGradient id="Безымянный_градиент_10-4" x1="637.48" y1="749.96" x2="637.48" y2="725.44" gradientTransform="translate(-572.53 -295.78)" xlink:href="#Безымянный_градиент_10"/><linearGradient id="Безымянный_градиент_10-5" x1="395.66" y1="519.2" x2="395.66" y2="283.28" gradientTransform="translate(57.63 -149.26)" xlink:href="#Безымянный_градиент_10"/><linearGradient id="Безымянный_градиент_10-6" x1="395.66" y1="273.32" x2="395.66" y2="37.4" gradientTransform="translate(303.5 96.62)" xlink:href="#Безымянный_градиент_10"/><linearGradient id="Безымянный_градиент_10-7" x1="395.66" y1="27.45" x2="395.66" y2="-208.47" gradientTransform="translate(549.37 342.49)" xlink:href="#Безымянный_градиент_10"/><linearGradient id="Безымянный_градиент_10-8" x1="516.57" y1="679.54" x2="516.57" y2="311.46" gradientTransform="translate(-125.11 -90.18)" xlink:href="#Безымянный_градиент_10"/><linearGradient id="Безымянный_градиент_10-9" x1="516.57" y1="187.79" x2="516.57" y2="-180.29" gradientTransform="translate(366.63 401.57)" xlink:href="#Безымянный_градиент_10"/><linearGradient id="Безымянный_градиент_10-10" x1="637.48" y1="131.9" x2="637.48" y2="-256.16" gradientTransform="translate(316.5 593.26)" xlink:href="#Безымянный_градиент_10"/><linearGradient id="Безымянный_градиент_10-11" x1="637.48" y1="868.65" x2="637.48" y2="210.6" gradientTransform="translate(-219 57.76)" xlink:href="#Безымянный_градиент_10"/></defs><title>picEQ</title><rect class="cls-1" x="153.82" y="76.13" width="107.18" height="235.92" transform="translate(401.5 -13.33) rotate(90)"/><rect class="cls-2" x="11.35" y="181.83" width="107.18" height="24.51" transform="translate(259.03 129.14) rotate(90)"/><rect class="cls-3" x="11.35" y="302.74" width="107.18" height="24.51" transform="translate(379.95 250.05) rotate(90)"/><rect class="cls-4" x="11.35" y="423.65" width="107.18" height="24.51" transform="translate(500.86 370.97) rotate(90)"/><rect class="cls-5" x="399.69" y="76.13" width="107.18" height="235.92" transform="translate(647.37 -259.2) rotate(90)"/><rect class="cls-6" x="645.57" y="76.13" width="107.18" height="235.92" transform="translate(893.25 -505.07) rotate(90)"/><rect class="cls-7" x="891.44" y="76.13" width="107.18" height="235.92" transform="translate(1139.12 -750.94) rotate(90)"/><rect class="cls-8" x="337.86" y="130.96" width="107.18" height="368.08" transform="translate(706.45 -76.45) rotate(90)"/><rect class="cls-9" x="829.61" y="130.96" width="107.18" height="368.08" transform="translate(1198.2 -568.2) rotate(90)"/><rect class="cls-10" x="900.39" y="241.88" width="107.18" height="388.06" transform="translate(1389.89 -518.07) rotate(90)"/><rect class="cls-11" x="364.89" y="106.89" width="107.18" height="658.05" transform="translate(854.39 17.43) rotate(90)"/></svg>