<svg id="Слой_1" data-name="Слой 1" xmlns="http://www.w3.org/2000/svg" xmlns:xlink="http://www.w3.org/1999/xlink" viewBox="0 0 1200 630"><defs><style>.cls-1{fill:#f8f9fa;}.cls-2{fill:none;stroke:#f8f9fa;stroke-linecap:round;stroke-linejoin:round;stroke-width:4px;}.cls-3{fill:url(#Безымянный_градиент);}.cls-4{fill:url(#Безымянный_градиент-2);}.cls-5{fill:url(#Безымянный_градиент-3);}.cls-6{fill:url(#Безымянный_градиент-4);}.cls-7{fill:url(#Безымянный_градиент-5);}.cls-8{fill:url(#Безымянный_градиент-6);}.cls-9{fill:url(#Безымянный_градиент-7);}.cls-10{fill:url(#Безымянный_градиент_10);}</style><linearGradient id="Безымянный_градиент" x1="459.91" y1="306.42" x2="516.47" y2="306.42" gradientUnits="userSpaceOnUse"><stop offset="0" stop-color="#f2f2f2"/><stop offset="1" stop-color="#f2f2f2" stop-opacity="0"/></linearGradient><linearGradient id="Безымянный_градиент-2" x1="488.19" y1="344.14" x2="567.6" y2="344.14" xlink:href="#Безымянный_градиент"/><linearGradient id="Безымянный_градиент-3" x1="408.78" y1="344.14" x2="488.19" y2="344.14" xlink:href="#Безымянный_градиент"/><linearGradient id="Безымянный_градиент-4" x1="299.42" y1="401.43" x2="488.19" y2="401.43" xlink:href="#Безымянный_градиент"/><linearGradient id="Безымянный_градиент-5" x1="488.19" y1="401.43" x2="676.95" y2="401.43" xlink:href="#Безымянный_градиент"/><linearGradient id="Безымянный_градиент-6" x1="488.19" y1="455.82" x2="667.47" y2="455.82" xlink:href="#Безымянный_градиент"/><linearGradient id="Безымянный_градиент-7" x1="308.9" y1="455.82" x2="488.19" y2="455.82" xlink:href="#Безымянный_градиент"/><linearGradient id="Безымянный_градиент_10" x1="1079.86" y1="597.11" x2="1079.86" y2="184.31" gradientUnits="userSpaceOnUse"><stop offset="0.54" stop-color="#f2f2f2"/><stop offset="0.6" stop-color="#f2f2f2" stop-opacity="0.95"/><stop offset="0.71" stop-color="#f2f2f2" stop-opacity="0.83"/><stop offset="0.85" stop-color="#f2f2f2" stop-opacity="0.63"/><stop offset="1" stop-color="#f2f2f2" stop-opacity="0.4"/></linearGradient></defs><title>picEQ</title><path class="cls-1" d="M890.3,546.62V522.47h10.45a13.63,13.63,0,0,1,5.59,1,8.19,8.19,0,0,1,3.62,3,9.14,9.14,0,0,1,0,9.33,8,8,0,0,1-3.62,3,14,14,0,0,1-5.59,1h-7.38l2.55-2.42v9.18Zm5.62-8.56-2.55-2.66h7.07a5.83,5.83,0,0,0,3.86-1.1,3.82,3.82,0,0,0,1.31-3.1,3.76,3.76,0,0,0-1.31-3.09,5.88,5.88,0,0,0-3.86-1.09h-7.07l2.55-2.66Zm9.76,8.56-6.07-8.77h6l6.08,8.77Z"/><path class="cls-1" d="M66.55,546.62V522.47h5.62v19.59h12v4.56Z"/><path class="cls-2" d="M901,495.82H75.38a412.81,412.81,0,1,1,825.61,0Z"/><path class="cls-2" d="M788.15,495.82H188.22a300,300,0,1,1,599.93,0Z"/><path class="cls-2" d="M686.47,495.82H289.9a198.29,198.29,0,1,1,396.57,0Z"/><path class="cls-2" d="M547.44,495.82H428.93a59.26,59.26,0,1,1,118.51,0Z"/><path class="cls-2" d="M619.84,495.82H356.53a131.66,131.66,0,1,1,263.31,0Z"/><polyline class="cls-2" points="900.99 495.81 788.15 495.81 686.47 495.81 619.84 495.81 547.45 495.81 488.19 495.81 428.93 495.81 356.53 495.81 289.9 495.81 188.22 495.81 75.38 495.81"/><polyline class="cls-2" points="488.19 495.81 446.28 453.91 395.1 402.73 347.97 355.6 276.08 283.71 196.29 203.92"/><polyline class="cls-2" points="488.19 495.81 530.09 453.91 581.28 402.73 628.4 355.6 700.3 283.71 780.08 203.92"/><polyline class="cls-2" points="488.19 495.81 488.19 436.56 488.19 364.16 488.19 297.53 488.19 195.85 488.19 83.01"/><path class="cls-1" d="M474.16,546.62V522.47h4.62l10.28,17h-2.45l10.07-17h4.66v24.15h-5.21l-.07-16.11h1L489,544h-2.49l-8.24-13.52h1.14v16.11Z"/><path class="cls-3" d="M488.19,495.82S551.82,117,488.19,117,488.19,495.82,488.19,495.82Z"/><path class="cls-4" d="M488.19,495.82S605.72,204,554.81,192.75,488.19,495.82,488.19,495.82Z"/><path class="cls-5" d="M488.19,495.82S370.66,204,421.57,192.75,488.19,495.82,488.19,495.82Z"/><path class="cls-6" d="M488.19,495.82s-216.89-154.5-185.7-185.7S488.19,495.82,488.19,495.82Z"/><path class="cls-7" d="M488.19,495.82s216.88-154.5,185.69-185.7S488.19,495.82,488.19,495.82Z"/><path class="cls-8" d="M488.19,495.82s191.22-44.57,178.69-74.59S488.19,495.82,488.19,495.82Z"/><path class="cls-9" d="M488.19,495.82S297,451.25,309.49,421.23,488.19,495.82,488.19,495.82Z"/><rect class="cls-10" x="1026.27" y="83.01" width="107.18" height="412.8"/><path class="cls-1" d="M1036.69,546.58V522.87h5.52v19.24H1054v4.47Z"/><path class="cls-1" d="M1067.38,547q-5.06,0-7.9-2.81c-1.89-1.88-2.84-4.56-2.84-8.06V522.87h5.52V536q0,3.36,1.39,4.86a5,5,0,0,0,3.86,1.51,5,5,0,0,0,3.9-1.51q1.38-1.5,1.38-4.86V522.87h5.39v13.25c0,3.5-.95,6.18-2.85,8.06A10.68,10.68,0,0,1,1067.38,547Z"/><path class="cls-1" d="M1089.05,546.58h-5.52V522.87h17.92v4.41h-12.4Zm-.44-13H1100V538h-11.38Z"/><path class="cls-1" d="M1113,547a19.8,19.8,0,0,1-5.47-.76,12.85,12.85,0,0,1-4.22-2l1.87-4.14a12.68,12.68,0,0,0,3.59,1.78,13.49,13.49,0,0,0,4.23.7,8.5,8.5,0,0,0,2.62-.34,3.34,3.34,0,0,0,1.48-.9,2,2,0,0,0,.47-1.3,1.79,1.79,0,0,0-.74-1.51,6.29,6.29,0,0,0-2-.92c-.83-.23-1.73-.46-2.7-.67s-1.94-.48-2.93-.78a12.11,12.11,0,0,1-2.71-1.22,5.77,5.77,0,0,1-2-2,6,6,0,0,1-.73-3.1,6.73,6.73,0,0,1,1.08-3.71,7.41,7.41,0,0,1,3.31-2.67,13.51,13.51,0,0,1,5.57-1,18.38,18.38,0,0,1,4.42.54,13,13,0,0,1,3.81,1.56l-1.73,4.13a13.51,13.51,0,0,0-3.28-1.37,12.32,12.32,0,0,0-3.26-.46,7.7,7.7,0,0,0-2.6.36,2.9,2.9,0,0,0-1.44,1,2.19,2.19,0,0,0-.46,1.36,1.82,1.82,0,0,0,.75,1.52,5.58,5.58,0,0,0,2,.9c.81.21,1.72.43,2.71.64s2,.48,2.95.8a12.47,12.47,0,0,1,2.67,1.2,5.89,5.89,0,0,1,2,2,5.75,5.75,0,0,1,.77,3.07,6.46,6.46,0,0,1-1.11,3.66,7.62,7.62,0,0,1-3.33,2.67A13.46,13.46,0,0,1,1113,547Z"/></svg>