<?xml version="1.0" encoding="utf-8"?>
<!-- Generator: Adobe Illustrator 22.1.0, SVG Export Plug-In . SVG Version: 6.00 Build 0)  -->
<svg version="1.2" baseProfile="tiny" id="Слой_1"
	 xmlns="http://www.w3.org/2000/svg" xmlns:xlink="http://www.w3.org/1999/xlink" x="0px" y="0px" viewBox="0 0 960 560"
	 xml:space="preserve">
<g>
	<path fill="#F8F9FA" d="M624.9,270.6v0.4c0,74.6-56.4,136.1-128.9,144v120h-32v-120c-72.5-8-128.9-69.4-128.9-144v-0.4h32v0.4
		c0,62.3,50.5,112.9,112.9,112.9s112.9-50.5,112.9-112.9v-0.4H624.9z"/>
	<path fill="#E6E6E6" d="M581.2,126.5v142.6c0,55.9-45.3,101.2-101.2,101.2S378.8,325,378.8,269.1V126.5c0-27.9,11.3-53.2,29.6-71.5
		c18.3-18.3,43.6-29.6,71.5-29.6C535.9,25.4,581.2,70.7,581.2,126.5z"/>
	<path fill="#F8F9FA" d="M581.6,125v6.1H379.1V125c0-29.8,12.9-56.6,33.4-75.2v59.8h30.7V30.8c6.8-2.7,14-4.7,21.5-5.8v84.6h30.7
		V24.9c7.5,1.1,14.6,3,21.5,5.7v79.1h30.7V49.3C568.4,67.8,581.6,94.9,581.6,125z"/>
	<rect x="379.1" y="161.8" fill="#F8F9FA" width="202.4" height="21.5"/>
	<rect x="379.1" y="213.9" fill="#F8F9FA" width="202.4" height="21.5"/>
	<path fill="#F8F9FA" d="M379.1,266h202.4v4.6c0,27.9-11.3,53.3-29.6,71.6c-1.4,1.4-2.9,2.8-4.5,4.2v-58.9h-30.7V365
		c-6.8,2.7-14,4.6-21.5,5.7v-83.2h-30.7v83.1c-7.5-1.1-14.6-3.1-21.5-5.8v-77.3h-30.7v58.3c-20.5-18.5-33.4-45.3-33.4-75.2V266z"/>
	<rect x="328" y="142.3" fill="#E6E6E6" width="39.1" height="111"/>
	<rect x="592.9" y="142.3" fill="#E6E6E6" width="39.1" height="111"/>
</g>
</svg>
